<svg width="339" height="312" viewBox="0 0 339 312" fill="none" xmlns="http://www.w3.org/2000/svg">
<rect width="339" height="312" rx="143" fill="url(#paint0_linear_431_61)"/>
<path d="M104 106.656V121.12H66.752V144.032H95.296V158.24H66.752V196H48.832V106.656H104ZM148.195 197.152C141.368 197.152 135.224 195.659 129.763 192.672C124.302 189.6 119.992 185.291 116.835 179.744C113.763 174.197 112.227 167.797 112.227 160.544C112.227 153.291 113.806 146.891 116.963 141.344C120.206 135.797 124.6 131.531 130.147 128.544C135.694 125.472 141.88 123.936 148.707 123.936C155.534 123.936 161.72 125.472 167.267 128.544C172.814 131.531 177.166 135.797 180.323 141.344C183.566 146.891 185.187 153.291 185.187 160.544C185.187 167.797 183.523 174.197 180.195 179.744C176.952 185.291 172.515 189.6 166.883 192.672C161.336 195.659 155.107 197.152 148.195 197.152ZM148.195 181.536C151.438 181.536 154.467 180.768 157.283 179.232C160.184 177.611 162.488 175.221 164.195 172.064C165.902 168.907 166.755 165.067 166.755 160.544C166.755 153.803 164.963 148.64 161.379 145.056C157.88 141.387 153.571 139.552 148.451 139.552C143.331 139.552 139.022 141.387 135.523 145.056C132.11 148.64 130.403 153.803 130.403 160.544C130.403 167.285 132.067 172.491 135.395 176.16C138.808 179.744 143.075 181.536 148.195 181.536Z" fill="#FEFEFF"/>
<path d="M259.132 106.656V121.12H235.324V196H217.404V121.12H193.596V106.656H259.132ZM281.295 116.64C278.138 116.64 275.492 115.659 273.359 113.696C271.311 111.648 270.287 109.131 270.287 106.144C270.287 103.157 271.311 100.683 273.359 98.72C275.492 96.672 278.138 95.648 281.295 95.648C284.452 95.648 287.055 96.672 289.103 98.72C291.236 100.683 292.303 103.157 292.303 106.144C292.303 109.131 291.236 111.648 289.103 113.696C287.055 115.659 284.452 116.64 281.295 116.64ZM290.127 125.088V196H272.207V125.088H290.127Z" fill="#887EFF"/>
<defs>
<linearGradient id="paint0_linear_431_61" x1="130.996" y1="98.28" x2="356.515" y2="95.752" gradientUnits="userSpaceOnUse">
<stop offset="0.12712" stop-color="#00040F" stop-opacity="0.6"/>
<stop offset="1" stop-color="#6366F1" stop-opacity="0"/>
</linearGradient>
</defs>
</svg>
